<svg xmlns="http://www.w3.org/2000/svg"
  viewBox="0 0 798 98"
  role="img"
  aria-labelledby="title desc">
  <title id="title">MOMNTUM wordmark</title>
  <desc id="desc">The approved MOMNTUM primary wordmark, traced directly from the supplied brand artwork.</desc>
  <g fill="#20242C" fill-rule="evenodd">
    <path d="M 689 1 L 689 97 L 711 97 L 711 38 L 712 37 L 714 40 L 715 46 L 732 96 L 734 97 L 751 97 L 754 95 L 773 38 L 774 39 L 774 96 L 775 97 L 797 97 L 797 0 L 767 0 L 764 1 L 761 4 L 755 22 L 755 25 L 750 37 L 750 40 L 745 55 L 743 58 L 741 55 L 724 3 L 719 0 L 690 0 Z"/><path d="M 581 0 L 580 1 L 580 80 L 584 90 L 590 95 L 597 97 L 652 97 L 661 94 L 667 88 L 670 79 L 670 1 L 669 0 L 645 0 L 645 72 L 642 75 L 608 75 L 605 72 L 605 1 L 604 0 Z"/><path d="M 484 0 L 483 5 L 483 18 L 484 19 L 483 21 L 484 22 L 508 22 L 510 24 L 510 97 L 534 97 L 534 23 L 535 22 L 562 22 L 563 21 L 563 1 L 562 0 Z"/><path d="M 238 1 L 238 96 L 239 97 L 260 97 L 261 96 L 261 39 L 262 38 L 270 60 L 273 72 L 275 75 L 275 78 L 280 93 L 283 97 L 301 97 L 303 95 L 321 41 L 323 38 L 324 39 L 324 97 L 346 97 L 347 96 L 347 1 L 346 0 L 316 0 L 311 4 L 293 58 L 291 57 L 274 4 L 269 0 L 239 0 Z"/><path d="M 137 3 L 131 9 L 128 18 L 128 79 L 131 88 L 137 94 L 145 97 L 202 97 L 211 94 L 217 88 L 220 79 L 220 18 L 216 8 L 211 3 L 202 0 L 146 0 Z M 156 22 L 192 22 L 195 25 L 195 72 L 192 75 L 156 75 L 153 72 L 153 25 Z"/><path d="M 0 0 L 0 96 L 1 97 L 22 97 L 22 39 L 23 38 L 25 40 L 27 49 L 39 85 L 42 91 L 42 94 L 45 97 L 63 97 L 66 93 L 83 40 L 85 37 L 86 38 L 86 97 L 108 97 L 109 96 L 109 1 L 108 0 L 78 0 L 75 1 L 72 4 L 67 19 L 67 22 L 56 55 L 54 58 L 46 36 L 46 33 L 37 5 L 31 0 Z"/>
  </g>
  <g fill="#C84E12" fill-rule="evenodd">
    <path d="M 425 0 L 452 44 L 454 49 L 436 81 L 426 81 L 401 43 L 400 43 L 400 66 L 413 88 L 420 97 L 446 97 L 473 50 L 473 47 L 445 0 Z"/><path d="M 373 0 L 372 2 L 372 24 L 373 25 L 373 30 L 372 31 L 372 79 L 373 80 L 373 89 L 372 94 L 373 97 L 388 97 L 389 95 L 389 85 L 388 84 L 389 82 L 388 81 L 389 79 L 389 17 L 390 16 L 397 16 L 401 20 L 430 64 L 432 63 L 439 49 L 412 9 L 405 2 L 401 0 Z"/>
  </g>
</svg>
